<svg fill="none" height="24" viewBox="0 0 24 24" width="24" xmlns="http://www.w3.org/2000/svg"><path d="m12.5 12c0-1.841 1.4551-3.33337 3.25-3.33337s3.25 1.49237 3.25 3.33337c0 1.8409-1.4551 3.3333-3.25 3.3333s-3.25-1.4924-3.25-3.3333z" fill="#1abcfe"/><path d="m6 18.6667c0-1.8409 1.45507-3.3333 3.25-3.3333h3.25v3.3333c0 1.841-1.4551 3.3333-3.25 3.3333-1.79493 0-3.25-1.4923-3.25-3.3333z" fill="#0acf83"/><path d="m12.5 2v6.66665h3.25c1.7949 0 3.25-1.49237 3.25-3.33332 0-1.84094-1.4551-3.33333-3.25-3.33333z" fill="#ff7262"/><path d="m6 5.33334c0 1.84094 1.45507 3.33331 3.25 3.33331h3.25v-6.66665h-3.25c-1.79493 0-3.25 1.49238-3.25 3.33334z" fill="#f24e1e"/><path d="m6 12c0 1.8409 1.45507 3.3333 3.25 3.3333h3.25v-6.66667h-3.25c-1.79493 0-3.25 1.49237-3.25 3.33337z" fill="#a259ff"/></svg>